<svg width="497" height="244" viewBox="0 0 497 244" fill="none" xmlns="http://www.w3.org/2000/svg">
<g filter="url(#filter0_d_35_235)">
<path d="M141.48 127.84V127.74H141.38V127.84H141.48ZM152.85 127.84V127.94H152.95V127.84H152.85ZM152.85 122.92H152.95V122.82H152.85V122.92ZM141.48 122.92H141.38V123.02H141.48V122.92ZM141.48 120.34V120.24H141.38V120.34H141.48ZM153.45 120.34V120.44H153.55V120.34H153.45ZM153.45 115H153.55V114.9H153.45V115ZM133.98 115V114.9H133.88V115H133.98ZM133.98 136H133.88V136.1H133.98V136ZM153.54 136V136.1H153.64V136H153.54ZM153.54 130.66H153.64V130.56H153.54V130.66ZM141.48 130.66H141.38V130.76H141.48V130.66ZM141.48 127.94H152.85V127.74H141.48V127.94ZM152.95 127.84V122.92H152.75V127.84H152.95ZM152.85 122.82H141.48V123.02H152.85V122.82ZM141.58 122.92V120.34H141.38V122.92H141.58ZM141.48 120.44H153.45V120.24H141.48V120.44ZM153.55 120.34V115H153.35V120.34H153.55ZM153.45 114.9H133.98V115.1H153.45V114.9ZM133.88 115V136H134.08V115H133.88ZM133.98 136.1H153.54V135.9H133.98V136.1ZM153.64 136V130.66H153.44V136H153.64ZM153.54 130.56H141.48V130.76H153.54V130.56ZM141.58 130.66V127.84H141.38V130.66H141.58ZM173.868 128.74L173.86 128.64L173.665 128.656L173.792 128.805L173.868 128.74ZM156.978 115V114.9H156.878V115H156.978ZM156.978 136H156.878V136.1H156.978V136ZM164.478 136V136.1H164.578V136H164.478ZM164.478 127.39L164.557 127.328L164.378 127.101V127.39H164.478ZM171.258 136L171.179 136.062L171.21 136.1H171.258V136ZM180.078 136V136.1H180.295L180.154 135.935L180.078 136ZM164.478 120.28V120.18H164.378V120.28H164.478ZM164.478 125.17H164.378V125.27H164.478V125.17ZM173.876 128.84C175.714 128.688 177.238 127.95 178.304 126.771C179.368 125.591 179.968 123.976 179.968 122.08H179.768C179.768 123.934 179.183 125.499 178.155 126.637C177.128 127.775 175.652 128.492 173.86 128.64L173.876 128.84ZM179.968 122.08C179.968 119.924 179.178 118.126 177.752 116.868C176.327 115.61 174.276 114.9 171.768 114.9V115.1C174.24 115.1 176.239 115.8 177.619 117.017C178.998 118.234 179.768 119.976 179.768 122.08H179.968ZM171.768 114.9H156.978V115.1H171.768V114.9ZM156.878 115V136H157.078V115H156.878ZM156.978 136.1H164.478V135.9H156.978V136.1ZM164.578 136V127.39H164.378V136H164.578ZM164.399 127.452L171.179 136.062L171.337 135.938L164.557 127.328L164.399 127.452ZM171.258 136.1H180.078V135.9H171.258V136.1ZM180.154 135.935L173.944 128.675L173.792 128.805L180.002 136.065L180.154 135.935ZM164.478 120.38H168.918V120.18H164.478V120.38ZM168.918 120.38C169.958 120.38 170.728 120.581 171.236 120.96C171.739 121.335 171.998 121.896 171.998 122.65H172.198C172.198 121.844 171.918 121.22 171.355 120.8C170.798 120.384 169.978 120.18 168.918 120.18V120.38ZM171.998 122.65C171.998 123.449 171.717 124.047 171.176 124.448C170.63 124.854 169.807 125.07 168.708 125.07V125.27C169.829 125.27 170.701 125.051 171.295 124.609C171.895 124.163 172.198 123.501 172.198 122.65H171.998ZM168.708 125.07H164.478V125.27H168.708V125.07ZM164.578 125.17V120.28H164.378V125.17H164.578ZM195.866 122.92L195.882 122.821L195.882 122.821L195.866 122.92ZM192.506 122.38L192.522 122.281L192.52 122.281L192.506 122.38ZM201.776 121.69L201.727 121.777L201.876 121.861V121.69H201.776ZM201.776 116.47H201.876V116.414L201.828 116.385L201.776 116.47ZM189.416 127.78L189.433 127.682L189.433 127.682L189.416 127.78ZM192.416 128.32L192.398 128.418L192.399 128.419L192.416 128.32ZM182.366 128.59L182.419 128.505L182.266 128.41V128.59H182.366ZM182.366 134.02H182.266V134.076L182.313 134.105L182.366 134.02ZM192.476 136.73C195.654 136.73 198.316 136.022 200.186 134.755C202.059 133.486 203.136 131.657 203.136 129.43H202.936C202.936 131.583 201.898 133.354 200.073 134.59C198.246 135.828 195.627 136.53 192.476 136.53V136.73ZM203.136 129.43C203.136 127.502 202.55 126.048 201.34 124.975C200.134 123.907 198.319 123.228 195.882 122.821L195.849 123.019C198.272 123.422 200.043 124.093 201.207 125.125C202.366 126.152 202.936 127.548 202.936 129.43H203.136ZM195.882 122.821L192.522 122.281L192.49 122.479L195.85 123.019L195.882 122.821ZM192.52 122.281C191.559 122.146 190.96 122.005 190.602 121.819C190.425 121.727 190.314 121.627 190.245 121.517C190.177 121.408 190.146 121.279 190.146 121.12H189.946C189.946 121.306 189.982 121.474 190.075 121.623C190.168 121.772 190.311 121.893 190.51 121.996C190.902 122.2 191.533 122.344 192.492 122.479L192.52 122.281ZM190.146 121.12C190.146 120.951 190.203 120.799 190.331 120.662C190.461 120.524 190.667 120.398 190.968 120.292C191.57 120.08 192.524 119.96 193.916 119.96V119.76C192.518 119.76 191.537 119.88 190.901 120.103C190.583 120.215 190.345 120.355 190.185 120.526C190.023 120.699 189.946 120.899 189.946 121.12H190.146ZM193.916 119.96C197.408 119.96 200.242 120.945 201.727 121.777L201.825 121.603C200.31 120.755 197.443 119.76 193.916 119.76V119.96ZM201.876 121.69V116.47H201.676V121.69H201.876ZM201.828 116.385C200.252 115.415 197.414 114.27 192.956 114.27V114.47C197.378 114.47 200.18 115.605 201.723 116.555L201.828 116.385ZM192.956 114.27C189.315 114.27 186.607 114.977 184.807 116.196C183.002 117.418 182.116 119.152 182.116 121.18H182.316C182.316 119.218 183.169 117.547 184.919 116.362C186.674 115.173 189.337 114.47 192.956 114.47V114.27ZM182.116 121.18C182.116 122.958 182.664 124.411 183.857 125.532C185.047 126.649 186.869 127.427 189.398 127.878L189.433 127.682C186.923 127.233 185.144 126.466 183.994 125.386C182.848 124.309 182.316 122.912 182.316 121.18H182.116ZM189.398 127.878L192.398 128.418L192.433 128.222L189.433 127.682L189.398 127.878ZM192.399 128.419C193.448 128.598 194.113 128.799 194.516 129.046C194.715 129.169 194.846 129.301 194.928 129.445C195.009 129.589 195.046 129.751 195.046 129.94H195.246C195.246 129.724 195.204 129.526 195.101 129.346C194.999 129.167 194.842 129.012 194.621 128.876C194.183 128.606 193.484 128.402 192.433 128.221L192.399 128.419ZM195.046 129.94C195.046 130.15 194.982 130.328 194.854 130.479C194.725 130.632 194.525 130.763 194.244 130.87C193.68 131.085 192.818 131.19 191.636 131.19V131.39C192.823 131.39 193.716 131.285 194.315 131.057C194.616 130.943 194.849 130.795 195.007 130.608C195.167 130.419 195.246 130.195 195.246 129.94H195.046ZM191.636 131.19C188.237 131.19 184.955 130.086 182.419 128.505L182.313 128.675C184.877 130.274 188.195 131.39 191.636 131.39V131.19ZM182.266 128.59V134.02H182.466V128.59H182.266ZM182.313 134.105C184.76 135.616 188.289 136.73 192.476 136.73V136.53C188.323 136.53 184.831 135.424 182.418 133.935L182.313 134.105ZM218.622 136.79C227.033 136.79 232.402 131.719 232.402 125.38H232.202C232.202 131.581 226.952 136.59 218.622 136.59V136.79ZM232.402 125.38C232.402 122.155 231.062 119.36 228.669 117.372C226.277 115.385 222.841 114.21 218.652 114.21V114.41C222.804 114.41 226.193 115.575 228.541 117.526C230.888 119.475 232.202 122.215 232.202 125.38H232.402ZM218.652 114.21C214.419 114.21 210.968 115.385 208.572 117.372C206.176 119.36 204.842 122.155 204.842 125.38H205.042C205.042 122.215 206.349 119.475 208.7 117.526C211.052 115.575 214.455 114.41 218.652 114.41V114.21ZM204.842 125.38C204.842 131.688 210.181 136.79 218.622 136.79V136.59C210.263 136.59 205.042 131.552 205.042 125.38H204.842ZM218.622 130.5C216.918 130.5 215.534 129.974 214.577 129.083C213.62 128.192 213.082 126.93 213.082 125.44H212.882C212.882 126.98 213.44 128.298 214.441 129.229C215.441 130.161 216.877 130.7 218.622 130.7V130.5ZM213.082 125.44C213.082 123.966 213.62 122.734 214.576 121.869C215.533 121.004 216.917 120.5 218.622 120.5V120.3C216.878 120.3 215.442 120.816 214.442 121.721C213.44 122.626 212.882 123.914 212.882 125.44H213.082ZM218.622 120.5C220.313 120.5 221.69 121.004 222.643 121.869C223.595 122.733 224.132 123.966 224.132 125.44H224.332C224.332 123.914 223.775 122.627 222.777 121.721C221.78 120.816 220.352 120.3 218.622 120.3V120.5ZM224.132 125.44C224.132 126.93 223.595 128.193 222.642 129.083C221.688 129.974 220.312 130.5 218.622 130.5V130.7C220.353 130.7 221.782 130.161 222.778 129.229C223.775 128.297 224.332 126.98 224.332 125.44H224.132ZM252.21 128.02L252.122 128.068L252.31 128.02H252.21ZM245.1 115L245.188 114.952L245.159 114.9H245.1V115ZM235.23 115V114.9H235.13V115H235.23ZM235.23 136H235.13V136.1H235.23V136ZM241.89 136V136.1H241.99V136H241.89ZM241.89 122.74L241.977 122.691L241.79 122.355V122.74H241.89ZM249.27 136L249.183 136.049L249.211 136.1H249.27V136ZM258.84 136V136.1H258.94V136H258.84ZM258.84 115H258.94V114.9H258.84V115ZM252.21 115V114.9H252.11V115H252.21ZM252.298 127.972L245.188 114.952L245.012 115.048L252.122 128.068L252.298 127.972ZM245.1 114.9H235.23V115.1H245.1V114.9ZM235.13 115V136H235.33V115H235.13ZM235.23 136.1H241.89V135.9H235.23V136.1ZM241.99 136V122.74H241.79V136H241.99ZM241.803 122.789L249.183 136.049L249.357 135.951L241.977 122.691L241.803 122.789ZM249.27 136.1H258.84V135.9H249.27V136.1ZM258.94 136V115H258.74V136H258.94ZM258.84 114.9H252.21V115.1H258.84V114.9ZM252.11 115V128.02H252.31V115H252.11ZM286.348 136V136.1H286.489L286.443 135.967L286.348 136ZM278.998 115L279.093 114.967L279.069 114.9H278.998V115ZM268.258 115V114.9H268.188L268.164 114.967L268.258 115ZM260.848 136L260.754 135.967L260.707 136.1H260.848V136ZM268.258 136V136.1H268.331L268.354 136.031L268.258 136ZM269.548 131.98V131.88H269.475L269.453 131.949L269.548 131.98ZM277.438 131.98L277.534 131.949L277.511 131.88H277.438V131.98ZM278.728 136L278.633 136.031L278.655 136.1H278.728V136ZM273.508 119.77L273.604 119.739L273.508 119.444L273.413 119.739L273.508 119.77ZM276.088 127.78V127.88H276.226L276.184 127.749L276.088 127.78ZM270.928 127.78L270.833 127.749L270.791 127.88H270.928V127.78ZM286.443 135.967L279.093 114.967L278.904 115.033L286.254 136.033L286.443 135.967ZM278.998 114.9H268.258V115.1H278.998V114.9ZM268.164 114.967L260.754 135.967L260.943 136.033L268.353 115.033L268.164 114.967ZM260.848 136.1H268.258V135.9H260.848V136.1ZM268.354 136.031L269.644 132.011L269.453 131.949L268.163 135.969L268.354 136.031ZM269.548 132.08H277.438V131.88H269.548V132.08ZM277.343 132.011L278.633 136.031L278.824 135.969L277.534 131.949L277.343 132.011ZM278.728 136.1H286.348V135.9H278.728V136.1ZM273.413 119.801L275.993 127.811L276.184 127.749L273.604 119.739L273.413 119.801ZM276.088 127.68H270.928V127.88H276.088V127.68ZM271.024 127.811L273.604 119.801L273.413 119.739L270.833 127.749L271.024 127.811ZM295.875 115H295.975V114.9H295.875V115ZM288.375 115V114.9H288.275V115H288.375ZM288.375 136H288.275V136.1H288.375V136ZM307.665 136V136.1H307.765V136H307.665ZM307.665 129.88H307.765V129.78H307.665V129.88ZM295.875 129.88H295.775V129.98H295.875V129.88ZM295.875 114.9H288.375V115.1H295.875V114.9ZM288.275 115V136H288.475V115H288.275ZM288.375 136.1H307.665V135.9H288.375V136.1ZM307.765 136V129.88H307.565V136H307.765ZM307.665 129.78H295.875V129.98H307.665V129.78ZM295.975 129.88V115H295.775V129.88H295.975ZM317.554 136V136.1H317.654V136H317.554ZM317.554 114.97H317.654V114.87H317.554V114.97ZM310.054 114.97V114.87H309.954V114.97H310.054ZM310.054 136H309.954V136.1H310.054V136ZM317.654 136V114.97H317.454V136H317.654ZM317.554 114.87H310.054V115.07H317.554V114.87ZM309.954 114.97V136H310.154V114.97H309.954ZM310.054 136.1H317.554V135.9H310.054V136.1ZM341.249 119.98L341.318 120.052L341.349 120.023V119.98H341.249ZM341.249 115H341.349V114.9H341.249V115ZM320.969 115V114.9H320.869V115H320.969ZM320.969 120.55H320.869V120.65H320.969V120.55ZM331.319 120.55L331.389 120.621L331.564 120.45H331.319V120.55ZM320.819 130.87L320.749 130.799L320.719 130.828V130.87H320.819ZM320.819 136H320.719V136.1H320.819V136ZM341.699 136V136.1H341.799V136H341.699ZM341.699 130.45H341.799V130.35H341.699V130.45ZM330.299 130.45L330.23 130.378L330.05 130.55H330.299V130.45ZM341.349 119.98V115H341.149V119.98H341.349ZM341.249 114.9H320.969V115.1H341.249V114.9ZM320.869 115V120.55H321.069V115H320.869ZM320.969 120.65H331.319V120.45H320.969V120.65ZM331.249 120.479L320.749 130.799L320.889 130.941L331.389 120.621L331.249 120.479ZM320.719 130.87V136H320.919V130.87H320.719ZM320.819 136.1H341.699V135.9H320.819V136.1ZM341.799 136V130.45H341.599V136H341.799ZM341.699 130.35H330.299V130.55H341.699V130.35ZM330.368 130.522L341.318 120.052L341.18 119.908L330.23 130.378L330.368 130.522ZM352.33 127.84V127.74H352.23V127.84H352.33ZM363.7 127.84V127.94H363.8V127.84H363.7ZM363.7 122.92H363.8V122.82H363.7V122.92ZM352.33 122.92H352.23V123.02H352.33V122.92ZM352.33 120.34V120.24H352.23V120.34H352.33ZM364.3 120.34V120.44H364.4V120.34H364.3ZM364.3 115H364.4V114.9H364.3V115ZM344.83 115V114.9H344.73V115H344.83ZM344.83 136H344.73V136.1H344.83V136ZM364.39 136V136.1H364.49V136H364.39ZM364.39 130.66H364.49V130.56H364.39V130.66ZM352.33 130.66H352.23V130.76H352.33V130.66ZM352.33 127.94H363.7V127.74H352.33V127.94ZM363.8 127.84V122.92H363.6V127.84H363.8ZM363.7 122.82H352.33V123.02H363.7V122.82ZM352.43 122.92V120.34H352.23V122.92H352.43ZM352.33 120.44H364.3V120.24H352.33V120.44ZM364.4 120.34V115H364.2V120.34H364.4ZM364.3 114.9H344.83V115.1H364.3V114.9ZM344.73 115V136H344.93V115H344.73ZM344.83 136.1H364.39V135.9H344.83V136.1ZM364.49 136V130.66H364.29V136H364.49ZM364.39 130.56H352.33V130.76H364.39V130.56ZM352.43 130.66V127.84H352.23V130.66H352.43ZM367.828 115V114.9H367.728V115H367.828ZM367.828 136H367.728V136.1H367.828V136ZM375.328 120.34V120.24H375.228V120.34H375.328ZM375.328 130.66H375.228V130.76H375.328V130.66ZM378.688 136.1C383.459 136.1 386.942 134.881 389.234 132.926C391.527 130.97 392.618 128.286 392.618 125.38H392.418C392.418 128.234 391.348 130.86 389.104 132.774C386.858 134.689 383.426 135.9 378.688 135.9V136.1ZM392.618 125.38C392.618 122.37 391.535 119.745 389.35 117.875C387.167 116.007 383.894 114.9 379.528 114.9V115.1C383.862 115.1 387.083 116.198 389.22 118.027C391.355 119.855 392.418 122.42 392.418 125.38H392.618ZM379.528 114.9H367.828V115.1H379.528V114.9ZM367.728 115V136H367.928V115H367.728ZM367.828 136.1H378.688V135.9H367.828V136.1ZM375.328 120.44H378.988V120.24H375.328V120.44ZM378.988 120.44C380.875 120.44 382.219 120.96 383.091 121.825C383.963 122.69 384.378 123.914 384.378 125.35H384.578C384.578 123.876 384.152 122.595 383.232 121.683C382.312 120.77 380.911 120.24 378.988 120.24V120.44ZM384.378 125.35C384.378 126.949 383.875 128.247 382.906 129.147C381.936 130.047 380.486 130.56 378.568 130.56V130.76C380.52 130.76 382.025 130.238 383.042 129.293C384.06 128.348 384.578 126.991 384.578 125.35H384.378ZM378.568 130.56H375.328V130.76H378.568V130.56ZM375.428 130.66V120.34H375.228V130.66H375.428Z" fill="#5865F2"/>
</g>
<g filter="url(#filter1_d_35_235)">
<path d="M145.48 127.84H156.85V122.92H145.48V120.34H157.45V115H137.98V136H157.54V130.66H145.48V127.84ZM177.868 128.74C181.498 128.44 183.868 125.83 183.868 122.08C183.868 117.82 180.748 115 175.768 115H160.978V136H168.478V127.39L175.258 136H184.078L177.868 128.74ZM168.478 120.28H172.918C175.018 120.28 176.098 121.09 176.098 122.65C176.098 124.3 174.928 125.17 172.708 125.17H168.478V120.28ZM196.476 136.63C202.806 136.63 207.036 133.81 207.036 129.43C207.036 125.62 204.726 123.73 199.866 122.92L196.506 122.38C194.586 122.11 194.046 121.81 194.046 121.12C194.046 120.34 195.126 119.86 197.916 119.86C201.426 119.86 204.276 120.85 205.776 121.69V116.47C204.216 115.51 201.396 114.37 196.956 114.37C189.696 114.37 186.216 117.19 186.216 121.18C186.216 124.69 188.376 126.88 193.416 127.78L196.416 128.32C198.516 128.68 199.146 129.13 199.146 129.94C199.146 130.87 198.006 131.29 195.636 131.29C192.216 131.29 188.916 130.18 186.366 128.59V134.02C188.796 135.52 192.306 136.63 196.476 136.63ZM222.622 136.69C230.992 136.69 236.302 131.65 236.302 125.38C236.302 118.99 230.992 114.31 222.652 114.31C214.222 114.31 208.942 118.99 208.942 125.38C208.942 131.62 214.222 136.69 222.622 136.69ZM222.622 130.6C219.172 130.6 216.982 128.47 216.982 125.44C216.982 122.44 219.172 120.4 222.622 120.4C226.042 120.4 228.232 122.44 228.232 125.44C228.232 128.47 226.042 130.6 222.622 130.6ZM256.21 128.02L249.1 115H239.23V136H245.89V122.74L253.27 136H262.84V115H256.21V128.02ZM290.348 136L282.998 115H272.258L264.848 136H272.258L273.548 131.98H281.438L282.728 136H290.348ZM277.508 119.77L280.088 127.78H274.928L277.508 119.77ZM299.875 115H292.375V136H311.665V129.88H299.875V115ZM321.554 136V114.97H314.054V136H321.554ZM345.249 119.98V115H324.969V120.55H335.319L324.819 130.87V136H345.699V130.45H334.299L345.249 119.98ZM356.33 127.84H367.7V122.92H356.33V120.34H368.3V115H348.83V136H368.39V130.66H356.33V127.84ZM382.688 136C392.198 136 396.518 131.14 396.518 125.38C396.518 119.41 392.228 115 383.528 115H371.828V136H382.688ZM379.328 120.34H382.988C386.798 120.34 388.478 122.44 388.478 125.35C388.478 128.59 386.438 130.66 382.568 130.66H379.328V120.34Z" fill="#5865F2"/>
</g>
<path d="M129.71 147.085H116.18L113.51 157.135L110.93 147.085H97.25L96.08 168.085H104.21L104.87 154.435L108.32 168.085H117.71L121.31 153.985L122.15 168.085H131.15L129.71 147.085ZM147.418 168.805C156.508 168.805 162.028 163.705 162.028 157.435C162.028 150.955 156.508 146.365 147.448 146.365C138.328 146.365 132.838 150.955 132.838 157.435C132.838 163.675 138.328 168.805 147.418 168.805ZM147.418 161.755C144.778 161.755 143.068 160.015 143.068 157.495C143.068 155.005 144.778 153.415 147.418 153.415C150.058 153.415 151.768 155.005 151.768 157.495C151.768 160.015 150.058 161.755 147.418 161.755ZM176.235 168.085C186.615 168.085 190.935 162.955 190.935 157.435C190.935 151.525 186.405 147.085 177.105 147.085H164.295V168.085H176.235ZM173.805 153.175H176.445C179.415 153.175 180.735 155.035 180.735 157.435C180.735 160.165 179.175 161.995 176.055 161.995H173.805V153.175ZM202.75 168.085V147.055H193.24V168.085H202.75ZM226.626 147.085H205.926V168.085H215.436V161.095H226.116V155.845H215.436V153.685H226.626V147.085ZM238.639 168.085V147.055H229.129V168.085H238.639ZM255.405 168.805C259.485 168.805 262.245 168.055 265.305 166.375V159.625C263.895 160.585 261.255 161.395 258.165 161.395C253.845 161.395 251.385 159.865 251.385 157.525C251.385 155.245 253.725 153.715 258.195 153.715C261.075 153.715 263.835 154.495 265.275 155.365V148.405C262.455 147.085 259.515 146.365 255.645 146.365C245.955 146.365 240.915 151.465 240.915 157.735C240.915 164.065 246.015 168.805 255.405 168.805ZM293.669 168.085L286.799 147.085H272.759L265.829 168.085H275.129L276.089 164.815H283.169L284.099 168.085H293.669ZM279.629 152.545L281.819 160.135H277.439L279.629 152.545ZM315.322 147.085H291.562V154.165H298.762V168.085H308.272V154.165H315.322V147.085ZM326.823 168.085V147.055H317.313V168.085H326.823ZM343.678 168.805C352.768 168.805 358.288 163.705 358.288 157.435C358.288 150.955 352.768 146.365 343.708 146.365C334.588 146.365 329.098 150.955 329.098 157.435C329.098 163.675 334.588 168.805 343.678 168.805ZM343.678 161.755C341.038 161.755 339.328 160.015 339.328 157.495C339.328 155.005 341.038 153.415 343.678 153.415C346.318 153.415 348.028 155.005 348.028 157.495C348.028 160.015 346.318 161.755 343.678 161.755ZM378.105 158.785L372.285 147.085H360.555V168.085H368.655V156.295L374.655 168.085H386.175V147.085H378.105V158.785ZM400.184 168.775C407.204 168.775 412.034 165.865 412.034 161.185C412.034 157.285 409.244 155.545 404.234 154.945L401.114 154.585C399.284 154.375 398.954 154.075 398.954 153.565C398.954 152.905 399.674 152.515 402.314 152.515C406.034 152.515 408.944 153.415 410.654 154.315V148.465C409.064 147.595 405.974 146.395 400.844 146.395C392.444 146.395 388.724 149.425 388.724 153.505C388.724 157.135 391.364 159.205 396.734 159.985L399.644 160.435C401.234 160.675 401.744 161.005 401.744 161.665C401.744 162.385 400.904 162.715 398.924 162.715C395.234 162.715 391.394 161.485 388.994 159.895V165.895C391.574 167.485 395.414 168.775 400.184 168.775Z" fill="white"/>
<g filter="url(#filter2_d_35_235)">
<path d="M104.739 125.586L111.221 104.57L120.173 104.57L109.161 139.384L104.739 125.586Z" stroke="#6969FF" stroke-width="0.1"/>
<path d="M102.38 103.05L100.069 96.05H128.05L125.109 103.05H102.38Z" stroke="#6969FF" stroke-width="0.1"/>
<path d="M122.917 96.5278H123.651H127.5C135.507 96.5278 137.5 100.363 137.5 106.824C137.5 113.201 122.422 126.112 113.333 126.112L115.038 120.669L115.417 119.773L115.981 118.484L118.324 117.537L120.668 116.354L124.503 113.277L125.782 111.147L126.421 109.49V108.307V107.36L126.208 105.94L125.834 104.452L125.417 103.337L123.903 102.934C123.736 102.89 123.563 102.867 123.39 102.867H119.167" stroke="#6969FF" stroke-width="0.1"/>
</g>
<g filter="url(#filter3_d_35_235)">
<path d="M113.684 104.52L122.741 104.52L111.662 139.548L107.187 125.584L113.684 104.52Z" fill="#5865F2"/>
<path d="M102.5 96H130.625L127.642 103.1H104.844L102.5 96Z" fill="#5865F2"/>
<path d="M126.364 96H123.381L124.659 103.1L125.892 103.296C126.064 103.323 126.231 103.373 126.39 103.443L127.216 103.81L128.281 104.52L128.708 105.94L128.921 107.361V108.307V109.491L128.281 111.147L127.003 113.277L123.168 116.354L120.824 117.538L118.481 118.484L115.498 119.194L115.285 119.668L113.58 125.111C122.669 125.111 140 113.201 140 106.824C140 100.363 135.975 96 127.969 96H126.364Z" fill="#5865F2"/>
</g>
<defs>
<filter id="filter0_d_35_235" x="33.98" y="18.3101" width="458.538" height="222.38" filterUnits="userSpaceOnUse" color-interpolation-filters="sRGB">
<feFlood flood-opacity="0" result="BackgroundImageFix"/>
<feColorMatrix in="SourceAlpha" type="matrix" values="0 0 0 0 0 0 0 0 0 0 0 0 0 0 0 0 0 0 127 0" result="hardAlpha"/>
<feOffset dy="4"/>
<feGaussianBlur stdDeviation="50"/>
<feComposite in2="hardAlpha" operator="out"/>
<feColorMatrix type="matrix" values="0 0 0 0 0.345098 0 0 0 0 0.396078 0 0 0 0 0.94902 0 0 0 0.88 0"/>
<feBlend mode="normal" in2="BackgroundImageFix" result="effect1_dropShadow_35_235"/>
<feBlend mode="normal" in="SourceGraphic" in2="effect1_dropShadow_35_235" result="shape"/>
</filter>
<filter id="filter1_d_35_235" x="37.98" y="18.3101" width="458.538" height="222.38" filterUnits="userSpaceOnUse" color-interpolation-filters="sRGB">
<feFlood flood-opacity="0" result="BackgroundImageFix"/>
<feColorMatrix in="SourceAlpha" type="matrix" values="0 0 0 0 0 0 0 0 0 0 0 0 0 0 0 0 0 0 127 0" result="hardAlpha"/>
<feOffset dy="4"/>
<feGaussianBlur stdDeviation="50"/>
<feComposite in2="hardAlpha" operator="out"/>
<feColorMatrix type="matrix" values="0 0 0 0 0.345098 0 0 0 0 0.396078 0 0 0 0 0.94902 0 0 0 0.88 0"/>
<feBlend mode="normal" in2="BackgroundImageFix" result="effect1_dropShadow_35_235"/>
<feBlend mode="normal" in="SourceGraphic" in2="effect1_dropShadow_35_235" result="shape"/>
</filter>
<filter id="filter2_d_35_235" x="0" y="0" width="237.55" height="243.548" filterUnits="userSpaceOnUse" color-interpolation-filters="sRGB">
<feFlood flood-opacity="0" result="BackgroundImageFix"/>
<feColorMatrix in="SourceAlpha" type="matrix" values="0 0 0 0 0 0 0 0 0 0 0 0 0 0 0 0 0 0 127 0" result="hardAlpha"/>
<feOffset dy="4"/>
<feGaussianBlur stdDeviation="50"/>
<feComposite in2="hardAlpha" operator="out"/>
<feColorMatrix type="matrix" values="0 0 0 0 0.345098 0 0 0 0 0.396078 0 0 0 0 0.94902 0 0 0 0.88 0"/>
<feBlend mode="normal" in2="BackgroundImageFix" result="effect1_dropShadow_35_235"/>
<feBlend mode="normal" in="SourceGraphic" in2="effect1_dropShadow_35_235" result="shape"/>
</filter>
<filter id="filter3_d_35_235" x="98.5" y="96" width="45.5" height="51.5483" filterUnits="userSpaceOnUse" color-interpolation-filters="sRGB">
<feFlood flood-opacity="0" result="BackgroundImageFix"/>
<feColorMatrix in="SourceAlpha" type="matrix" values="0 0 0 0 0 0 0 0 0 0 0 0 0 0 0 0 0 0 127 0" result="hardAlpha"/>
<feOffset dy="4"/>
<feGaussianBlur stdDeviation="2"/>
<feComposite in2="hardAlpha" operator="out"/>
<feColorMatrix type="matrix" values="0 0 0 0 0 0 0 0 0 0 0 0 0 0 0 0 0 0 0.25 0"/>
<feBlend mode="normal" in2="BackgroundImageFix" result="effect1_dropShadow_35_235"/>
<feBlend mode="normal" in="SourceGraphic" in2="effect1_dropShadow_35_235" result="shape"/>
</filter>
</defs>
</svg>
